<svg width="1024" height="1024" xmlns="http://www.w3.org/2000/svg" class="svg-icon">

 <g>
  <title>background</title>
  <rect fill="none" id="canvas_background" height="26" width="26" y="-1" x="-1"/>
 </g>
 <g>
  <title>Layer 1</title>
  <path fill="#ffffff" id="svg_1" d="m843.28296,870.11556c-8.43852,-140.51556 -104.29629,-257.42223 -233.90814,-297.14963c78.50666,-36.69334 133.02518,-116.4326 133.02518,-208.87704c0,-127.24148 -103.15852,-230.4 -230.4,-230.4s-230.4,103.15852 -230.4,230.4c0,92.44444 54.51852,172.1837 133.12,208.87704c-129.61185,39.7274 -225.46963,156.63407 -233.90815,297.14963c-0.6637,10.9037 7.96445,20.19555 18.96297,20.19555l0,0c9.95555,0 18.29925,-7.77481 18.96296,-17.73037c9.0074,-154.07407 136.91259,-276.19556 293.26222,-276.19556s284.25482,122.12149 293.35704,276.19556c0.56889,9.95556 8.91259,17.73037 18.96296,17.73037c10.99852,0 19.62667,-9.29185 18.96296,-20.19555zm-523.75703,-506.02667c0,-106.28741 86.18666,-192.47408 192.47407,-192.47408s192.47407,86.18667 192.47407,192.47408c0,106.28741 -86.18666,192.47407 -192.47407,192.47407s-192.47407,-86.18666 -192.47407,-192.47407z"/>
 </g>
</svg>